# xmcd
# 
# Track frame offsets:
#     150
#     17097
#     35170
# 
# Disc length: 655
# 
# Revision: 1
# Processed by: cddbd v1.5.2PL0 Copyright (c) Steve Scherf et al.
# Submitted via: BonkEnc v1.0
# 
DISCID=1f028d03
DTITLE=王様 - 転石伝説
DYEAR=0
DGENRE=Rock
TTITLE0=飛んでるジャックの稲妻
TTITLE1=満足できない！
TTITLE2=居酒屋の女
EXTD=
EXTT0=
EXTT1=
EXTT2=
PLAYORDER=
